<mxfile host="app.diagrams.net" modified="2020-08-31T05:09:39.425Z" agent="5.0 (Windows)" etag="WPw8yjFSYV5PhF2D4YYX" version="13.6.5" type="github">
  <diagram id="dnRgv7B2gYc5I0xisCOR" name="Page-1">
    <mxGraphModel dx="1422" dy="883" grid="1" gridSize="10" guides="1" tooltips="1" connect="1" arrows="1" fold="1" page="1" pageScale="1" pageWidth="1920" pageHeight="1200" math="0" shadow="0">
      <root>
        <mxCell id="0" />
        <mxCell id="1" parent="0" />
        <mxCell id="JxTsUpEeMa1ZSkfOxO1r-1" value="開始" style="rhombus;whiteSpace=wrap;html=1;fontSize=25;" vertex="1" parent="1">
          <mxGeometry x="290" y="60" width="130" height="100" as="geometry" />
        </mxCell>
        <mxCell id="JxTsUpEeMa1ZSkfOxO1r-2" value="Web預約" style="rounded=1;whiteSpace=wrap;html=1;fontSize=25;" vertex="1" parent="1">
          <mxGeometry x="120" y="260" width="160" height="60" as="geometry" />
        </mxCell>
        <mxCell id="JxTsUpEeMa1ZSkfOxO1r-3" value="App預約" style="rounded=1;whiteSpace=wrap;html=1;fontSize=25;" vertex="1" parent="1">
          <mxGeometry x="400" y="260" width="160" height="60" as="geometry" />
        </mxCell>
      </root>
    </mxGraphModel>
  </diagram>
</mxfile>
